<svg width="106" height="106" viewBox="0 0 106 106" fill="none" xmlns="http://www.w3.org/2000/svg">
<circle cx="53" cy="53" r="53" fill="white"/>
<mask id="mask0_24525_21029" style="mask-type:alpha" maskUnits="userSpaceOnUse" x="0" y="1" width="105" height="105">
<circle cx="52.5" cy="53.5" r="52.5" fill="white"/>
</mask>
<g mask="url(#mask0_24525_21029)">
<path d="M38.3882 15.6857L45.6628 12.8129L84.1986 26.4108L88.7207 27.1769V29.6667L85.5749 54.9473L68.2731 54.3727L63.5544 57.82L41.1408 43.2646L38.3882 15.6857Z" fill="black"/>
<path d="M70.6785 16.582C82.0986 16.1183 87.465 24.504 88.7207 28.7549L79.2039 38.8023L73.0577 40.5413C70.2159 44.9854 64.3736 53.7189 63.7392 53.1006C62.9461 52.3278 57.3947 46.3379 52.2398 42.0871C47.0849 37.8362 52.2398 31.8464 53.8259 27.982C55.0948 24.8905 52.9007 23.3447 51.645 22.9583C53.2311 21.0261 59.2584 17.0457 70.6785 16.582Z" fill="#891121"/>
<path d="M47.5703 33.7818C41.7014 39.4369 56.5723 47.521 61.9603 51.2565C59.792 46.1281 46.9789 43.6588 54.4696 32.2623C54.4696 32.2623 59.2006 24.8545 52.8926 24.0947C56.4409 20.6758 60.2519 19.916 67.0856 18.9663C77.8021 17.4769 85.8123 25.0445 88.7692 28.8433C95.6685 18.9663 61.9604 4.5307 46.9789 12.1284C37.7141 16.827 41.1309 21.7521 47.5703 24.0947C52.6955 26.1841 52.6955 28.8433 47.5703 33.7818Z" fill="#F32E3F"/>
<path d="M-5.53596 184.94C-4.90786 184.32 -4.88169 177.06 -4.94712 174.088L-21.4349 182.227C-23.0051 182.847 -21.9583 187.136 -20.6497 188.622C-24.8895 186.297 -28.0431 188.041 -29.0899 189.203C-33.4866 187.343 -34.9784 191.141 -35.1747 193.273C-32.8193 188.932 -30.1367 190.301 -29.0899 191.529C-28.8936 191.787 -28.187 192.381 -26.9308 192.691C-25.6746 193.001 -25.0988 192.045 -24.968 191.529C-23.7118 192.769 -22.3509 192.045 -21.8274 191.529C-21.1993 192.769 -18.0326 193.208 -16.5278 193.273C-16.0567 195.133 -15.1538 196.632 -14.7613 197.148C-19.001 195.133 -22.4163 196.825 -23.594 197.923C-27.9907 195.598 -29.7442 199.667 -30.0713 201.993C-26.7345 196.954 -23.9865 200.249 -22.6126 201.411C-21.5134 202.342 -19.93 201.411 -19.2758 200.83C-17.3914 201.915 -15.8735 201.282 -15.3501 200.83C-12.0526 202.535 -5.20882 201.928 -2.19916 201.411C1.06102 201.749 1.77151 201.28 1.7265 200.83C3.29677 200.83 4.3436 200.443 4.67075 200.249C6.55505 201.024 7.54956 200.572 7.81126 200.249C10.9518 201.489 13.0455 200.766 13.6998 200.249C14.6419 201.024 16.7094 200.572 17.6254 200.249C17.6254 200.83 18.1357 201.993 20.1771 201.993C23.0036 201.683 22.5325 199.667 21.9436 198.699C27.7536 197.923 30.7763 201.347 31.5615 203.155C32.3466 196.799 23.9064 196.115 19.5882 196.567C16.6047 195.172 14.4195 195.986 13.6998 196.567C10.7555 194.048 2.48201 195.654 2.31534 195.017C2.14867 194.379 1.53021 192.498 0.94136 191.529C2.04054 192.149 5.06331 191.787 6.43729 191.529C7.22241 192.149 8.46553 191.787 8.98895 191.529C8.98895 192.11 9.5778 193.273 11.9332 193.273C14.2886 193.273 14.0923 191.077 13.6998 189.978C17.6254 189.513 21.2239 191.981 22.5325 193.273C22.5325 188.157 14.6812 187.395 10.7555 187.653C9.02823 186.723 7.15698 187.265 6.43729 187.653H5.45587C3.88562 186.723 -2.00287 186.49 -4.75083 186.49L-5.53596 184.94Z" fill="#020101"/>
<path d="M-7.69955 62.687C2.6245 48.3226 23.8607 19.1189 37.7785 14.7238L44.2474 12.8129C41.0456 14.8512 36.6416 19.7303 44.6394 22.9406C54.6368 26.9535 49.7361 29.4376 47.3838 32.495C45.0315 35.5525 43.9966 38.5395 48.1679 41.4762C51.6964 43.9603 58.3613 48.9286 61.3017 51.0306C61.563 52.7504 62.2034 56.2664 64.242 56.5722C65.0262 59.6933 64.6341 66.6234 56.793 69.3751C61.4323 78.7384 65.379 104.497 44.0513 132.625C33.5966 144.282 8.96266 169.161 -5.93532 175.429C-20.8333 181.697 -28.609 185.684 -30.6346 186.894C-39.6086 189.442 -61.2286 197.71 -75.9167 210.398C-83.678 216.908 -98.7851 229.866 -101.865 233.55C-102.454 234.698 -102.795 235.228 -102.38 234.284C-102.306 234.115 -102.13 233.867 -101.865 233.55C-100.783 231.441 -98.8631 227.248 -99.2438 226.259C-99.8318 224.73 -103.36 234.284 -118.65 240.59C-115.906 238.616 -110.221 233.826 -109.437 230.463C-113.684 233.966 -123.943 241.66 -131 244.412L-72.9763 180.589C-76.6354 181.48 -85.7964 183.264 -93.167 183.264C-84.1497 176.257 -63.2142 155.059 -51.6094 126.319C-37.1035 90.3948 -12.9923 62.687 -7.69955 62.687Z" fill="#416830"/>
<path d="M26.0256 53.4016C5.0603 51.2713 -10.0331 62.2781 -14.9592 68.0478L-74.8599 180.652C-13.5799 169.81 1.00124 149.838 20.9025 130.627C40.8037 111.416 52.2321 56.0646 26.0256 53.4016Z" fill="black"/>
<path d="M-75.226 173.085C-78.0441 175.174 -90.3525 176.5 -96.1544 176.901C-85.1722 167.862 -78.7486 159.626 -60.0995 128.491C-51.9648 114.91 -44.4373 97.2196 -36.8917 85.1031C-30.5984 74.9976 -23.8701 69.7478 -20.7291 64.8151C2.64444 44.4065 21.1969 48.5445 27.5514 53.1645C44.1284 76.787 22.4401 115.368 9.52388 131.705C-15.1758 158.863 -57.2676 170.607 -75.226 173.085Z" fill="#5C8443"/>
<path d="M68.6192 57.82C63.8546 57.82 61.2075 52.3796 61.6707 50.2158C64.6487 48.1757 68.4207 43.3535 72.5897 40.9424C77.3543 45.5791 76.1632 45.5791 78.1485 50.9577C79.1014 51.848 81.5896 54.2961 82.9131 54.6671C81.7951 56.5218 74.575 57.82 68.6192 57.82Z" fill="#C59349"/>
<path d="M88.0708 29.6906C87.4929 30.4445 81.5215 34.0254 81.5215 34.0254C79.4668 35.973 75.1263 39.8681 74.2017 39.8681C75.9353 41.5643 79.942 46.1254 82.0994 50.7995C84.2568 55.4736 79.2742 63.6784 76.5132 67.1965C84.0642 64.3318 88.9055 57.7101 90.3823 54.7574C97.0087 42.3936 91.7949 32.8318 88.0708 29.6906Z" fill="#C59349"/>
<path d="M61.442 18.2945C61.6153 20.6758 57.7602 22.9503 55.811 23.7898C57.3704 23.7898 58.7709 25.7743 59.2762 26.7665V25.6216L62.5249 29.7431C65.196 31.4223 71.2747 33.4525 74.2202 28.1403C77.1656 22.8281 72.5597 18.7524 69.8886 17.3786C67.1164 15.5468 63.1025 17.2259 61.442 18.2945Z" fill="white"/>
<path d="M71.6128 24.3328C71.6128 26.8863 69.4784 28.9563 66.8454 28.9563C64.2125 28.9563 62.0781 26.8863 62.0781 24.3328C62.0781 21.7793 64.2125 19.7093 66.8454 19.7093C69.4784 19.7093 71.6128 21.7793 71.6128 24.3328Z" fill="#C59349"/>
<path d="M70.4911 24.0608C70.4911 25.8633 68.9844 27.3245 67.1259 27.3245C65.2673 27.3245 63.7607 25.8633 63.7607 24.0608C63.7607 22.2583 65.2673 20.7971 67.1259 20.7971C68.9844 20.7971 70.4911 22.2583 70.4911 24.0608Z" fill="#83D2F3"/>
<path d="M69.9302 23.789C69.9302 25.1409 68.8002 26.2368 67.4063 26.2368C66.0124 26.2368 64.8824 25.1409 64.8824 23.789C64.8824 22.4372 66.0124 21.3413 67.4063 21.3413C68.8002 21.3413 69.9302 22.4372 69.9302 23.789Z" fill="black"/>
<path d="M68.2476 25.1488C68.2476 25.7496 67.7454 26.2367 67.1259 26.2367C66.5064 26.2367 66.0042 25.7496 66.0042 25.1488C66.0042 24.548 66.5064 24.0609 67.1259 24.0609C67.7454 24.0609 68.2476 24.548 68.2476 25.1488Z" fill="white"/>
</g>
</svg>
